<?xml version="1.0" encoding="UTF-8"?>
<!DOCTYPE svg PUBLIC "-//W3C//DTD SVG 1.1//EN"
    "http://www.w3.org/Graphics/SVG/1.1/DTD/svg11.dtd"><svg xmlns="http://www.w3.org/2000/svg" height="12.8526" stroke-opacity="1" viewBox="0 0 300 13" font-size="1" width="300.0000" xmlns:xlink="http://www.w3.org/1999/xlink" stroke="rgb(0,0,0)" version="1.1"><defs></defs><g stroke-linejoin="miter" stroke-opacity="1.0" fill-opacity="1.0" stroke="rgb(0,0,0)" stroke-width="0.5" fill="rgb(0,0,0)" stroke-linecap="butt" stroke-miterlimit="10.0"><path d="M 225.0000,3.7487 c 0.0000,-0.2958 -0.2398,-0.5355 -0.5355 -0.5355c -0.2958,-0.0000 -0.5355,0.2398 -0.5355 0.5355c -0.0000,0.2958 0.2398,0.5355 0.5355 0.5355c 0.2958,0.0000 0.5355,-0.2398 0.5355 -0.5355Z"/></g><g stroke-linejoin="miter" stroke-opacity="1.0" fill-opacity="1.0" stroke="rgb(0,0,0)" stroke-width="0.5" fill="rgb(0,0,0)" stroke-linecap="butt" stroke-miterlimit="10.0"><path d="M 212.4688,3.7487 c 0.0000,-0.2958 -0.2398,-0.5355 -0.5355 -0.5355c -0.2958,-0.0000 -0.5355,0.2398 -0.5355 0.5355c -0.0000,0.2958 0.2398,0.5355 0.5355 0.5355c 0.2958,0.0000 0.5355,-0.2398 0.5355 -0.5355Z"/></g><g stroke-linejoin="miter" stroke-opacity="1.0" fill-opacity="1.0" stroke="rgb(0,0,0)" stroke-width="0.5" fill="rgb(0,0,0)" stroke-linecap="butt" stroke-miterlimit="10.0"><path d="M 200.0179,3.7487 c 0.0000,-0.2958 -0.2398,-0.5355 -0.5355 -0.5355c -0.2958,-0.0000 -0.5355,0.2398 -0.5355 0.5355c -0.0000,0.2958 0.2398,0.5355 0.5355 0.5355c 0.2958,0.0000 0.5355,-0.2398 0.5355 -0.5355Z"/></g><g stroke-linejoin="miter" stroke-opacity="1.0" fill-opacity="1.0" stroke="rgb(0,0,0)" stroke-width="0.5" fill="rgb(0,0,0)" stroke-linecap="butt" stroke-miterlimit="10.0"><path d="M 187.5669,3.7487 c 0.0000,-0.2958 -0.2398,-0.5355 -0.5355 -0.5355c -0.2958,-0.0000 -0.5355,0.2398 -0.5355 0.5355c -0.0000,0.2958 0.2398,0.5355 0.5355 0.5355c 0.2958,0.0000 0.5355,-0.2398 0.5355 -0.5355Z"/></g><g stroke-linejoin="miter" stroke-opacity="1.0" fill-opacity="1.0" stroke="rgb(0,0,0)" stroke-width="0.5" fill="rgb(0,0,0)" stroke-linecap="butt" stroke-miterlimit="10.0"><path d="M 175.1964,3.7487 c 0.0000,-0.2958 -0.2398,-0.5355 -0.5355 -0.5355c -0.2958,-0.0000 -0.5355,0.2398 -0.5355 0.5355c -0.0000,0.2958 0.2398,0.5355 0.5355 0.5355c 0.2958,0.0000 0.5355,-0.2398 0.5355 -0.5355Z"/></g><g stroke-linejoin="miter" stroke-opacity="1.0" fill-opacity="1.0" stroke="rgb(0,0,0)" stroke-width="0.5" fill="rgb(0,0,0)" stroke-linecap="butt" stroke-miterlimit="10.0"><path d="M 162.8258,3.7487 c 0.0000,-0.2958 -0.2398,-0.5355 -0.5355 -0.5355c -0.2958,-0.0000 -0.5355,0.2398 -0.5355 0.5355c -0.0000,0.2958 0.2398,0.5355 0.5355 0.5355c 0.2958,0.0000 0.5355,-0.2398 0.5355 -0.5355Z"/></g><g stroke-linejoin="miter" stroke-opacity="1.0" fill-opacity="1.0" stroke="rgb(0,0,0)" stroke-width="0.5" fill="rgb(0,0,0)" stroke-linecap="butt" stroke-miterlimit="10.0"><path d="M 150.5355,3.7487 c 0.0000,-0.2958 -0.2398,-0.5355 -0.5355 -0.5355c -0.2958,-0.0000 -0.5355,0.2398 -0.5355 0.5355c -0.0000,0.2958 0.2398,0.5355 0.5355 0.5355c 0.2958,0.0000 0.5355,-0.2398 0.5355 -0.5355Z"/></g><g stroke-linejoin="miter" stroke-opacity="1.0" fill-opacity="1.0" stroke="rgb(0,0,0)" stroke-width="0.5" fill="rgb(0,0,0)" stroke-linecap="butt" stroke-miterlimit="10.0"><path d="M 138.2453,3.7487 c 0.0000,-0.2958 -0.2398,-0.5355 -0.5355 -0.5355c -0.2958,-0.0000 -0.5355,0.2398 -0.5355 0.5355c -0.0000,0.2958 0.2398,0.5355 0.5355 0.5355c 0.2958,0.0000 0.5355,-0.2398 0.5355 -0.5355Z"/></g><g stroke-linejoin="miter" stroke-opacity="1.0" fill-opacity="1.0" stroke="rgb(0,0,0)" stroke-width="0.5" fill="rgb(0,0,0)" stroke-linecap="butt" stroke-miterlimit="10.0"><path d="M 125.8747,3.7487 c 0.0000,-0.2958 -0.2398,-0.5355 -0.5355 -0.5355c -0.2958,-0.0000 -0.5355,0.2398 -0.5355 0.5355c -0.0000,0.2958 0.2398,0.5355 0.5355 0.5355c 0.2958,0.0000 0.5355,-0.2398 0.5355 -0.5355Z"/></g><g stroke-linejoin="miter" stroke-opacity="1.0" fill-opacity="1.0" stroke="rgb(0,0,0)" stroke-width="0.5" fill="rgb(0,0,0)" stroke-linecap="butt" stroke-miterlimit="10.0"><path d="M 113.5041,3.7487 c 0.0000,-0.2958 -0.2398,-0.5355 -0.5355 -0.5355c -0.2958,-0.0000 -0.5355,0.2398 -0.5355 0.5355c -0.0000,0.2958 0.2398,0.5355 0.5355 0.5355c 0.2958,0.0000 0.5355,-0.2398 0.5355 -0.5355Z"/></g><g stroke-linejoin="miter" stroke-opacity="1.0" fill-opacity="1.0" stroke="rgb(0,0,0)" stroke-width="0.5" fill="rgb(0,0,0)" stroke-linecap="butt" stroke-miterlimit="10.0"><path d="M 101.0532,3.7487 c 0.0000,-0.2958 -0.2398,-0.5355 -0.5355 -0.5355c -0.2958,-0.0000 -0.5355,0.2398 -0.5355 0.5355c -0.0000,0.2958 0.2398,0.5355 0.5355 0.5355c 0.2958,0.0000 0.5355,-0.2398 0.5355 -0.5355Z"/></g><g stroke-linejoin="miter" stroke-opacity="1.0" fill-opacity="1.0" stroke="rgb(0,0,0)" stroke-width="0.5" fill="rgb(0,0,0)" stroke-linecap="butt" stroke-miterlimit="10.0"><path d="M 88.6023,3.7487 c 0.0000,-0.2958 -0.2398,-0.5355 -0.5355 -0.5355c -0.2958,-0.0000 -0.5355,0.2398 -0.5355 0.5355c -0.0000,0.2958 0.2398,0.5355 0.5355 0.5355c 0.2958,0.0000 0.5355,-0.2398 0.5355 -0.5355Z"/></g><g stroke-linejoin="miter" stroke-opacity="1.0" fill-opacity="1.0" stroke="rgb(0,0,0)" stroke-width="0.5" fill="rgb(0,0,0)" stroke-linecap="butt" stroke-miterlimit="10.0"><path d="M 76.0710,3.7487 c 0.0000,-0.2958 -0.2398,-0.5355 -0.5355 -0.5355c -0.2958,-0.0000 -0.5355,0.2398 -0.5355 0.5355c -0.0000,0.2958 0.2398,0.5355 0.5355 0.5355c 0.2958,0.0000 0.5355,-0.2398 0.5355 -0.5355Z"/></g><g stroke-linejoin="miter" stroke-opacity="1.0" fill-opacity="1.0" stroke="rgb(0,0,0)" stroke-width="0.5" fill="rgb(0,0,0)" stroke-linecap="butt" stroke-miterlimit="10.0"><path d="M 224.2770,9.1039 c 0.0000,-0.2958 -0.2398,-0.5355 -0.5355 -0.5355c -0.2958,-0.0000 -0.5355,0.2398 -0.5355 0.5355c -0.0000,0.2958 0.2398,0.5355 0.5355 0.5355c 0.2958,0.0000 0.5355,-0.2398 0.5355 -0.5355Z"/></g><g stroke-linejoin="miter" stroke-opacity="1.0" fill-opacity="1.0" stroke="rgb(0,0,0)" stroke-width="0.5" fill="rgb(0,0,0)" stroke-linecap="butt" stroke-miterlimit="10.0"><path d="M 211.5851,9.1039 c 0.0000,-0.2958 -0.2398,-0.5355 -0.5355 -0.5355c -0.2958,-0.0000 -0.5355,0.2398 -0.5355 0.5355c -0.0000,0.2958 0.2398,0.5355 0.5355 0.5355c 0.2958,0.0000 0.5355,-0.2398 0.5355 -0.5355Z"/></g><g stroke-linejoin="miter" stroke-opacity="1.0" fill-opacity="1.0" stroke="rgb(0,0,0)" stroke-width="0.5" fill="rgb(0,0,0)" stroke-linecap="butt" stroke-miterlimit="10.0"><path d="M 198.8129,9.1039 c 0.0000,-0.2958 -0.2398,-0.5355 -0.5355 -0.5355c -0.2958,-0.0000 -0.5355,0.2398 -0.5355 0.5355c -0.0000,0.2958 0.2398,0.5355 0.5355 0.5355c 0.2958,0.0000 0.5355,-0.2398 0.5355 -0.5355Z"/></g><g stroke-linejoin="miter" stroke-opacity="1.0" fill-opacity="1.0" stroke="rgb(0,0,0)" stroke-width="0.5" fill="rgb(0,0,0)" stroke-linecap="butt" stroke-miterlimit="10.0"><path d="M 185.9604,9.1039 c 0.0000,-0.2958 -0.2398,-0.5355 -0.5355 -0.5355c -0.2958,-0.0000 -0.5355,0.2398 -0.5355 0.5355c -0.0000,0.2958 0.2398,0.5355 0.5355 0.5355c 0.2958,0.0000 0.5355,-0.2398 0.5355 -0.5355Z"/></g><g stroke-linejoin="miter" stroke-opacity="1.0" fill-opacity="1.0" stroke="rgb(0,0,0)" stroke-width="0.5" fill="rgb(0,0,0)" stroke-linecap="butt" stroke-miterlimit="10.0"><path d="M 173.1078,9.1039 c 0.0000,-0.2958 -0.2398,-0.5355 -0.5355 -0.5355c -0.2958,-0.0000 -0.5355,0.2398 -0.5355 0.5355c -0.0000,0.2958 0.2398,0.5355 0.5355 0.5355c 0.2958,0.0000 0.5355,-0.2398 0.5355 -0.5355Z"/></g><g stroke-linejoin="miter" stroke-opacity="1.0" fill-opacity="1.0" stroke="rgb(0,0,0)" stroke-width="0.5" fill="rgb(0,0,0)" stroke-linecap="butt" stroke-miterlimit="10.0"><path d="M 160.1749,9.1039 c 0.0000,-0.2958 -0.2398,-0.5355 -0.5355 -0.5355c -0.2958,-0.0000 -0.5355,0.2398 -0.5355 0.5355c -0.0000,0.2958 0.2398,0.5355 0.5355 0.5355c 0.2958,0.0000 0.5355,-0.2398 0.5355 -0.5355Z"/></g><g stroke-linejoin="miter" stroke-opacity="1.0" fill-opacity="1.0" stroke="rgb(0,0,0)" stroke-width="0.5" fill="rgb(0,0,0)" stroke-linecap="butt" stroke-miterlimit="10.0"><path d="M 147.2421,9.1039 c 0.0000,-0.2958 -0.2398,-0.5355 -0.5355 -0.5355c -0.2958,-0.0000 -0.5355,0.2398 -0.5355 0.5355c -0.0000,0.2958 0.2398,0.5355 0.5355 0.5355c 0.2958,0.0000 0.5355,-0.2398 0.5355 -0.5355Z"/></g><g stroke-linejoin="miter" stroke-opacity="1.0" fill-opacity="1.0" stroke="rgb(0,0,0)" stroke-width="0.5" fill="rgb(0,0,0)" stroke-linecap="butt" stroke-miterlimit="10.0"><path d="M 134.3092,9.1039 c 0.0000,-0.2958 -0.2398,-0.5355 -0.5355 -0.5355c -0.2958,-0.0000 -0.5355,0.2398 -0.5355 0.5355c -0.0000,0.2958 0.2398,0.5355 0.5355 0.5355c 0.2958,0.0000 0.5355,-0.2398 0.5355 -0.5355Z"/></g><g stroke-linejoin="miter" stroke-opacity="1.0" fill-opacity="1.0" stroke="rgb(0,0,0)" stroke-width="0.5" fill="rgb(0,0,0)" stroke-linecap="butt" stroke-miterlimit="10.0"><path d="M 121.3763,9.1039 c 0.0000,-0.2958 -0.2398,-0.5355 -0.5355 -0.5355c -0.2958,-0.0000 -0.5355,0.2398 -0.5355 0.5355c -0.0000,0.2958 0.2398,0.5355 0.5355 0.5355c 0.2958,0.0000 0.5355,-0.2398 0.5355 -0.5355Z"/></g><g stroke-linejoin="miter" stroke-opacity="1.0" fill-opacity="1.0" stroke="rgb(0,0,0)" stroke-width="0.5" fill="rgb(0,0,0)" stroke-linecap="butt" stroke-miterlimit="10.0"><path d="M 108.6041,9.1039 c 0.0000,-0.2958 -0.2398,-0.5355 -0.5355 -0.5355c -0.2958,-0.0000 -0.5355,0.2398 -0.5355 0.5355c -0.0000,0.2958 0.2398,0.5355 0.5355 0.5355c 0.2958,0.0000 0.5355,-0.2398 0.5355 -0.5355Z"/></g><g stroke-linejoin="miter" stroke-opacity="1.0" fill-opacity="1.0" stroke="rgb(0,0,0)" stroke-width="0.5" fill="rgb(0,0,0)" stroke-linecap="butt" stroke-miterlimit="10.0"><path d="M 95.7515,9.1039 c 0.0000,-0.2958 -0.2398,-0.5355 -0.5355 -0.5355c -0.2958,-0.0000 -0.5355,0.2398 -0.5355 0.5355c -0.0000,0.2958 0.2398,0.5355 0.5355 0.5355c 0.2958,0.0000 0.5355,-0.2398 0.5355 -0.5355Z"/></g><g stroke-linejoin="miter" stroke-opacity="1.0" fill-opacity="1.0" stroke="rgb(0,0,0)" stroke-width="0.5" fill="rgb(0,0,0)" stroke-linecap="butt" stroke-miterlimit="10.0"><path d="M 83.0596,9.1039 c 0.0000,-0.2958 -0.2398,-0.5355 -0.5355 -0.5355c -0.2958,-0.0000 -0.5355,0.2398 -0.5355 0.5355c -0.0000,0.2958 0.2398,0.5355 0.5355 0.5355c 0.2958,0.0000 0.5355,-0.2398 0.5355 -0.5355Z"/></g></svg>